<?xml version="1.0" encoding="UTF-8" standalone="no"?>
<svg
   xmlns:dc="http://purl.org/dc/elements/1.1/"
   xmlns:cc="http://creativecommons.org/ns#"
   xmlns:rdf="http://www.w3.org/1999/02/22-rdf-syntax-ns#"
   xmlns:svg="http://www.w3.org/2000/svg"
   xmlns="http://www.w3.org/2000/svg"
   xmlns:sodipodi="http://sodipodi.sourceforge.net/DTD/sodipodi-0.dtd"
   xmlns:inkscape="http://www.inkscape.org/namespaces/inkscape"
   sodipodi:docname="Fuji Speedway (1965-1974).svg"
   inkscape:version="1.0 (4035a4fb49, 2020-05-01)"
   id="svg8"
   version="1.1"
   viewBox="0 0 308.75805 106.93523"
   height="106.93523mm"
   width="308.75806mm">
  <defs
     id="defs2">
    <rect
       id="rect1507"
       height="19.64431"
       width="43.965837"
       y="62.941974"
       x="255.37603" />
    <rect
       id="rect1501"
       height="25.390605"
       width="51.850288"
       y="54.522984"
       x="209.80658" />
    <rect
       id="rect1495"
       height="25.390606"
       width="64.144687"
       y="60.135644"
       x="217.82467" />
    <rect
       id="rect1489"
       height="13.607143"
       width="66.712798"
       y="9.4494048"
       x="133.80357" />
    <rect
       id="rect1483"
       height="12.567708"
       width="30.710566"
       y="82.587798"
       x="8.2209822" />
    <rect
       id="rect1477"
       height="16.630952"
       width="32.883929"
       y="83.721726"
       x="3.874256" />
    <pattern
       id="EMFhbasepattern"
       patternUnits="userSpaceOnUse"
       width="6"
       height="6"
       x="0"
       y="0" />
  </defs>
  <sodipodi:namedview
     fit-margin-bottom="5"
     fit-margin-right="5"
     fit-margin-left="5"
     fit-margin-top="5"
     lock-margins="true"
     inkscape:window-maximized="1"
     inkscape:window-y="-8"
     inkscape:window-x="-8"
     inkscape:window-height="705"
     inkscape:window-width="1366"
     showguides="true"
     showgrid="false"
     inkscape:document-rotation="0"
     inkscape:current-layer="layer6"
     inkscape:document-units="mm"
     inkscape:cy="322.35905"
     inkscape:cx="1158.1474"
     inkscape:zoom="0.35"
     inkscape:pageshadow="2"
     inkscape:pageopacity="0.0"
     borderopacity="1.0"
     bordercolor="#666666"
     pagecolor="#ffffff"
     id="base" />
  <metadata
     id="metadata5">
    <rdf:RDF>
      <cc:Work
         rdf:about="">
        <dc:format>image/svg+xml</dc:format>
        <dc:type
           rdf:resource="http://purl.org/dc/dcmitype/StillImage" />
        <dc:title></dc:title>
      </cc:Work>
    </rdf:RDF>
  </metadata>
  <g
     sodipodi:insensitive="true"
     transform="translate(17.926073,4.1489617)"
     style="display:inline"
     inkscape:label="Track"
     id="layer3"
     inkscape:groupmode="layer">
    <path
       sodipodi:nodetypes="sssssssssssssssssssssscsssssssssssssssssssssssssssssssssssssscssssssssssssssssssssssssssssss"
       id="track"
       d="m 27.45955,93.899568 c -2.805647,-0.1886 -4.307354,-0.48793 -6.177785,-1.231396 C 12.099575,89.018397 7.3031947,84.618943 3.8490106,76.678068 0.40152669,68.752596 1.3789987,59.363928 6.8607577,47.75011 9.9473357,41.210791 17.170402,30.928173 23.044577,24.711136 c 0.825531,-0.873715 1.640331,-1.850122 1.810666,-2.169794 0.170336,-0.319671 1.039621,-1.193386 1.931746,-1.941589 0.892124,-0.748203 3.195555,-2.775666 5.118735,-4.505474 C 36.088268,12.332282 39.436307,9.8086015 43.203866,7.5779845 52.97316,1.793984 59.99698,-0.00525099 68.056419,1.211709 c 4.175727,0.630527 5.659458,1.425295 9.705401,5.1987535 1.761671,1.643025 2.351823,2.505909 3.323546,4.8594895 2.248251,5.445412 2.459245,9.360899 0.809911,15.029757 -0.826655,2.841266 -3.447059,6.747825 -5.623768,8.384048 -2.010642,1.51139 -6.140682,3.499991 -9.367586,4.510461 -3.04109,0.952282 -5.471872,2.43106 -8.216563,4.998586 -2.844156,2.660571 -3.949344,4.740231 -4.489858,8.448695 -0.352988,2.421847 -0.323585,3.254365 0.205773,5.826067 1.095409,5.321657 1.74725,6.589119 5.134759,9.9842 3.353877,3.361378 4.118323,3.732377 10.00764,4.856889 5.058077,0.965796 21.165803,0.790566 25.141108,-0.273503 5.560228,-1.488302 14.719858,-8.605568 18.797178,-14.605884 2.14165,-3.151722 6.12372,-12.508347 6.10903,-14.354308 -0.009,-1.102801 3.032,-7.792007 4.56552,-10.043377 2.95452,-4.337564 8.18578,-7.7868 12.38765,-8.167812 2.68822,-0.24376 7.09487,0.709836 9.87986,2.137995 1.65897,0.850728 2.765,1.755869 3.99268,3.267478 6.62252,8.154134 8.35864,22.104778 3.91882,31.489775 -0.71078,1.502458 -0.92893,2.543221 -0.97206,4.637553 -0.0548,2.660567 -0.0374,2.717265 1.17994,3.848989 1.11023,1.032135 1.41459,1.136165 3.00064,1.025615 2.93114,-0.204305 5.63026,-1.700691 8.63197,-4.785548 2.68064,-2.75489 6.26419,-7.806125 8.55732,-12.062078 1.20151,-2.229951 6.61305,-11.169967 9.24098,-15.266368 1.82137,-2.839136 6.10682,-7.916404 8.37524,-9.922712 2.54018,-2.24667 8.6689,-6.346016 11.38874,-7.617645 3.07519,-1.437764 6.08161,-2.143951 10.38076,-2.438363 3.11525,-0.213338 4.82003,-0.09593 10.6342,0.7324 13.75651,1.959843 24.02667,5.740137 36.26355,13.348075 3.30332,2.053747 5.08279,3.490152 8.35551,6.744672 3.8705,3.848954 4.2781,4.387279 5.88868,7.777245 4.44675,9.359554 4.39223,17.921642 -0.17421,27.357212 -3.74404,7.736242 -12.10575,14.410092 -20.92537,16.701457 -5.48148,1.424095 -4.97745,1.418205 -116.37287,1.362505 -58.643375,-0.0293 -108.292322,-0.16543 -110.33099,-0.30246 z m 48.01021,-2.540303 c 2.232828,-0.315409 5.807117,-0.746198 7.942865,-0.957309 5.191306,-0.513137 118.115565,-0.534241 122.965995,-0.02298 1.8776,0.197908 5.63783,0.634765 8.35605,0.970794 7.12358,0.880617 31.6438,0.866715 36.44597,-0.02065 4.97957,-0.920162 7.83495,-2.016267 11.21123,-4.303695 7.03794,-4.768215 10.83502,-9.891064 13.08801,-17.657721 0.75122,-2.589653 0.91931,-3.895195 0.90902,-7.060325 -0.024,-7.39892 -2.50279,-13.755687 -7.36738,-18.893831 -8.00789,-8.458217 -23.95584,-16.580482 -38.0481,-19.377851 -16.46934,-3.269228 -22.92801,-2.43667 -32.62611,4.205686 -7.31004,5.00674 -10.96516,9.623967 -20.26059,25.593595 -5.50572,9.458866 -7.86374,12.73976 -11.84343,16.478636 -2.49166,2.340897 -3.02568,2.66988 -5.67107,3.493703 -3.91325,1.218658 -5.52169,0.997356 -7.55909,-1.040042 0,0 -1.31683,-1.364686 -1.65736,-2.224327 -0.38654,-0.975797 -0.35807,-3.128277 -0.35807,-3.128277 0.018,-3.419721 0.69465,-3.953737 1.69032,-6.342859 2.51032,-6.023517 2.76904,-10.908834 0.97003,-18.317307 -2.10047,-8.649951 -6.25259,-13.308182 -13.06891,-14.661887 -2.81407,-0.558868 -3.15192,-0.559966 -5.02202,-0.01631 -6.66385,1.937235 -11.02509,7.011137 -13.64456,15.874215 -1.76843,5.983526 -3.59439,10.424774 -5.93065,14.425013 -2.81596,4.821584 -11.27827,12.467341 -16.620995,15.017191 -3.28864,1.569525 -5.690877,2.059907 -12.401896,2.531681 -11.988345,0.84276 -22.0381,-0.602969 -26.410044,-3.799287 -3.975874,-2.906756 -6.604302,-6.868297 -7.802157,-11.759344 -0.926336,-3.7824 -1.019462,-4.985857 -0.614637,-7.943053 0.570531,-4.167652 1.89114,-6.590887 5.381115,-9.874005 3.375305,-3.175243 4.826008,-3.968428 12.121696,-6.627647 3.749446,-1.366644 6.965018,-3.643766 8.693918,-6.156637 1.213836,-1.764249 1.8374,-3.651639 2.638285,-7.985528 0.647862,-3.5058 0.522104,-4.338561 -1.369714,-9.070323 C 78.359837,9.5880105 76.921797,7.9324595 73.489138,5.6648065 61.594961,-2.192615 41.52927,6.7740675 22.572356,28.417807 17.886212,33.768134 15.910648,36.446357 12.416808,42.185441 8.3148537,48.923426 6.3562477,53.312329 4.8549747,59.13022 3.4876686,64.428955 3.4072886,65.256499 3.8441486,69.537157 c 0.357964,3.507576 0.578664,4.362211 1.6409301,6.354292 3.697411,6.933811 3.931604,7.242178 7.5008053,9.876491 4.764433,3.516476 9.497503,5.582009 13.767633,6.008255 1.456192,0.145358 12.099632,0.240044 23.652089,0.210416 17.267592,-0.04429 21.726721,-0.155899 25.064154,-0.627346 z m 132.38109,0.298995 c -4.19008,-0.534499 -121.483697,-0.534499 -125.673781,0 -2.229291,0.284379 13.923638,0.382772 62.836891,0.382772 48.91326,0 65.06618,-0.09839 62.83689,-0.382772 z"
       style="display:inline;fill:#000000;stroke-width:0.353016" />
  </g>
  <g
     transform="translate(19.765297,5)"
     sodipodi:insensitive="true"
     style="display:inline"
     inkscape:label="Icons"
     id="layer4"
     inkscape:groupmode="layer">
    <rect
       y="85.269867"
       x="171.84468"
       height="11.330735"
       width="2.3307316"
       id="rect110"
       style="font-variation-settings:normal;opacity:0.998;vector-effect:none;fill:#000000;fill-opacity:1;fill-rule:evenodd;stroke:#000000;stroke-width:0.669265;stroke-linecap:butt;stroke-linejoin:miter;stroke-miterlimit:4;stroke-dasharray:none;stroke-dashoffset:0;stroke-opacity:1;stop-color:#000000;stop-opacity:1" />
    <rect
       y="85.026482"
       x="171.60175"
       height="0.81651324"
       width="0.81651318"
       id="rect947"
       style="font-variation-settings:normal;opacity:0.998;vector-effect:none;fill:#ffffff;fill-opacity:1;fill-rule:evenodd;stroke:#ffffff;stroke-width:0.183487;stroke-linecap:butt;stroke-linejoin:miter;stroke-miterlimit:4;stroke-dasharray:none;stroke-dashoffset:0;stroke-opacity:1;stop-color:#000000;stop-opacity:1" />
    <rect
       style="font-variation-settings:normal;display:inline;opacity:0.998;vector-effect:none;fill:#ffffff;fill-opacity:1;fill-rule:evenodd;stroke:#ffffff;stroke-width:0.183487;stroke-linecap:butt;stroke-linejoin:miter;stroke-miterlimit:4;stroke-dasharray:none;stroke-dashoffset:0;stroke-opacity:1;stop-color:#000000;stop-opacity:1"
       id="rect947-0"
       width="0.81651318"
       height="0.81651324"
       x="173.60175"
       y="85.026482" />
    <rect
       y="86.026482"
       x="172.60175"
       height="0.81651324"
       width="0.81651318"
       id="rect947-0-5"
       style="font-variation-settings:normal;display:inline;opacity:0.998;vector-effect:none;fill:#ffffff;fill-opacity:1;fill-rule:evenodd;stroke:#ffffff;stroke-width:0.183487;stroke-linecap:butt;stroke-linejoin:miter;stroke-miterlimit:4;stroke-dasharray:none;stroke-dashoffset:0;stroke-opacity:1;stop-color:#000000;stop-opacity:1" />
    <rect
       y="87.026482"
       x="171.60175"
       height="0.81651324"
       width="0.81651318"
       id="rect947-0-4"
       style="font-variation-settings:normal;display:inline;opacity:0.998;vector-effect:none;fill:#ffffff;fill-opacity:1;fill-rule:evenodd;stroke:#ffffff;stroke-width:0.183487;stroke-linecap:butt;stroke-linejoin:miter;stroke-miterlimit:4;stroke-dasharray:none;stroke-dashoffset:0;stroke-opacity:1;stop-color:#000000;stop-opacity:1" />
    <rect
       style="font-variation-settings:normal;display:inline;opacity:0.998;vector-effect:none;fill:#ffffff;fill-opacity:1;fill-rule:evenodd;stroke:#ffffff;stroke-width:0.183487;stroke-linecap:butt;stroke-linejoin:miter;stroke-miterlimit:4;stroke-dasharray:none;stroke-dashoffset:0;stroke-opacity:1;stop-color:#000000;stop-opacity:1"
       id="rect947-0-4-5"
       width="0.81651318"
       height="0.81651324"
       x="173.60175"
       y="87.026482" />
    <rect
       style="font-variation-settings:normal;display:inline;opacity:0.998;vector-effect:none;fill:#ffffff;fill-opacity:1;fill-rule:evenodd;stroke:#ffffff;stroke-width:0.183487;stroke-linecap:butt;stroke-linejoin:miter;stroke-miterlimit:4;stroke-dasharray:none;stroke-dashoffset:0;stroke-opacity:1;stop-color:#000000;stop-opacity:1"
       id="rect947-0-5-9"
       width="0.81651318"
       height="0.81651324"
       x="172.60175"
       y="88.026482" />
    <rect
       style="font-variation-settings:normal;display:inline;opacity:0.998;vector-effect:none;fill:#ffffff;fill-opacity:1;fill-rule:evenodd;stroke:#ffffff;stroke-width:0.183487;stroke-linecap:butt;stroke-linejoin:miter;stroke-miterlimit:4;stroke-dasharray:none;stroke-dashoffset:0;stroke-opacity:1;stop-color:#000000;stop-opacity:1"
       id="rect947-0-4-2"
       width="0.81651318"
       height="0.81651324"
       x="171.60175"
       y="89.026482" />
    <rect
       y="89.026482"
       x="173.60175"
       height="0.81651324"
       width="0.81651318"
       id="rect947-0-4-2-6"
       style="font-variation-settings:normal;display:inline;opacity:0.998;vector-effect:none;fill:#ffffff;fill-opacity:1;fill-rule:evenodd;stroke:#ffffff;stroke-width:0.183487;stroke-linecap:butt;stroke-linejoin:miter;stroke-miterlimit:4;stroke-dasharray:none;stroke-dashoffset:0;stroke-opacity:1;stop-color:#000000;stop-opacity:1" />
    <rect
       y="90.026482"
       x="172.60175"
       height="0.81651324"
       width="0.81651318"
       id="rect947-0-4-2-2"
       style="font-variation-settings:normal;display:inline;opacity:0.998;vector-effect:none;fill:#ffffff;fill-opacity:1;fill-rule:evenodd;stroke:#ffffff;stroke-width:0.183487;stroke-linecap:butt;stroke-linejoin:miter;stroke-miterlimit:4;stroke-dasharray:none;stroke-dashoffset:0;stroke-opacity:1;stop-color:#000000;stop-opacity:1" />
    <rect
       style="font-variation-settings:normal;display:inline;opacity:0.998;vector-effect:none;fill:#ffffff;fill-opacity:1;fill-rule:evenodd;stroke:#ffffff;stroke-width:0.183487;stroke-linecap:butt;stroke-linejoin:miter;stroke-miterlimit:4;stroke-dasharray:none;stroke-dashoffset:0;stroke-opacity:1;stop-color:#000000;stop-opacity:1"
       id="rect947-0-4-2-2-2"
       width="0.81651318"
       height="0.81651324"
       x="171.60175"
       y="91.026482" />
    <rect
       y="91.026482"
       x="173.60175"
       height="0.81651324"
       width="0.81651318"
       id="rect947-0-4-2-2-2-7"
       style="font-variation-settings:normal;display:inline;opacity:0.998;vector-effect:none;fill:#ffffff;fill-opacity:1;fill-rule:evenodd;stroke:#ffffff;stroke-width:0.183487;stroke-linecap:butt;stroke-linejoin:miter;stroke-miterlimit:4;stroke-dasharray:none;stroke-dashoffset:0;stroke-opacity:1;stop-color:#000000;stop-opacity:1" />
    <rect
       style="font-variation-settings:normal;display:inline;opacity:0.998;vector-effect:none;fill:#ffffff;fill-opacity:1;fill-rule:evenodd;stroke:#ffffff;stroke-width:0.183487;stroke-linecap:butt;stroke-linejoin:miter;stroke-miterlimit:4;stroke-dasharray:none;stroke-dashoffset:0;stroke-opacity:1;stop-color:#000000;stop-opacity:1"
       id="rect947-0-4-2-2-2-7-9"
       width="0.81651318"
       height="0.81651324"
       x="172.60175"
       y="92.026482" />
    <rect
       y="93.026482"
       x="171.60175"
       height="0.81651324"
       width="0.81651318"
       id="rect947-0-4-2-2-2-7-9-1"
       style="font-variation-settings:normal;display:inline;opacity:0.998;vector-effect:none;fill:#ffffff;fill-opacity:1;fill-rule:evenodd;stroke:#ffffff;stroke-width:0.183487;stroke-linecap:butt;stroke-linejoin:miter;stroke-miterlimit:4;stroke-dasharray:none;stroke-dashoffset:0;stroke-opacity:1;stop-color:#000000;stop-opacity:1" />
    <rect
       style="font-variation-settings:normal;display:inline;opacity:0.998;vector-effect:none;fill:#ffffff;fill-opacity:1;fill-rule:evenodd;stroke:#ffffff;stroke-width:0.183487;stroke-linecap:butt;stroke-linejoin:miter;stroke-miterlimit:4;stroke-dasharray:none;stroke-dashoffset:0;stroke-opacity:1;stop-color:#000000;stop-opacity:1"
       id="rect947-0-4-2-2-2-7-9-1-3"
       width="0.81651318"
       height="0.81651324"
       x="173.60175"
       y="93.026482" />
    <rect
       style="font-variation-settings:normal;display:inline;opacity:0.998;vector-effect:none;fill:#ffffff;fill-opacity:1;fill-rule:evenodd;stroke:#ffffff;stroke-width:0.183487;stroke-linecap:butt;stroke-linejoin:miter;stroke-miterlimit:4;stroke-dasharray:none;stroke-dashoffset:0;stroke-opacity:1;stop-color:#000000;stop-opacity:1"
       id="rect947-0-4-2-2-2-7-9-1-1"
       width="0.81651318"
       height="0.81651324"
       x="172.60175"
       y="94.026482" />
    <rect
       y="95.026482"
       x="171.60175"
       height="0.81651324"
       width="0.81651318"
       id="rect947-0-4-2-2-2-7-9-1-1-0"
       style="font-variation-settings:normal;display:inline;opacity:0.998;vector-effect:none;fill:#ffffff;fill-opacity:1;fill-rule:evenodd;stroke:#ffffff;stroke-width:0.183487;stroke-linecap:butt;stroke-linejoin:miter;stroke-miterlimit:4;stroke-dasharray:none;stroke-dashoffset:0;stroke-opacity:1;stop-color:#000000;stop-opacity:1" />
    <rect
       style="font-variation-settings:normal;display:inline;opacity:0.998;vector-effect:none;fill:#ffffff;fill-opacity:1;fill-rule:evenodd;stroke:#ffffff;stroke-width:0.183487;stroke-linecap:butt;stroke-linejoin:miter;stroke-miterlimit:4;stroke-dasharray:none;stroke-dashoffset:0;stroke-opacity:1;stop-color:#000000;stop-opacity:1"
       id="rect947-0-4-2-2-2-7-9-1-1-0-8"
       width="0.81651318"
       height="0.81651324"
       x="173.60175"
       y="95.026482" />
    <rect
       y="96.026779"
       x="172.60175"
       height="0.81651324"
       width="0.81651318"
       id="rect947-0-4-2-2-2-7-9-1-1-0-8-9"
       style="font-variation-settings:normal;display:inline;opacity:0.998;vector-effect:none;fill:#ffffff;fill-opacity:1;fill-rule:evenodd;stroke:#ffffff;stroke-width:0.183487;stroke-linecap:butt;stroke-linejoin:miter;stroke-miterlimit:4;stroke-dasharray:none;stroke-dashoffset:0;stroke-opacity:1;stop-color:#000000;stop-opacity:1" />
    <path
       transform="matrix(2.2042444,0,0,1,-203.00925,0)"
       inkscape:transform-center-y="-1.0178571e-06"
       inkscape:transform-center-x="1.979427"
       d="m 163.19009,84.496582 5.38802,-3.110778 0,6.221556 z"
       inkscape:randomized="0"
       inkscape:rounded="0"
       inkscape:flatsided="true"
       sodipodi:arg2="-2.0943951"
       sodipodi:arg1="-3.1415927"
       sodipodi:r2="1.7960085"
       sodipodi:r1="3.5920169"
       sodipodi:cy="84.496582"
       sodipodi:cx="166.7821"
       sodipodi:sides="3"
       id="path1203"
       style="opacity:0.998;fill:#ff0000;stroke:none;stroke-width:0.264583"
       sodipodi:type="star" />
  </g>
  <g
     sodipodi:insensitive="true"
     transform="translate(19.765297,5)"
     style="display:inline"
     inkscape:label="Corner Numbers"
     id="layer5"
     inkscape:groupmode="layer">
    <circle
       style="display:inline;opacity:0.998;fill:#ffffff;stroke:#000000;stroke-width:0.264583"
       id="path1209"
       cx="-8.0180845"
       cy="66.282845"
       r="6.6149211" />
    <text
       xml:space="preserve"
       style="font-style:normal;font-weight:normal;font-size:10.5833px;line-height:1.25;font-family:sans-serif;display:inline;fill:#000000;fill-opacity:1;stroke:none;stroke-width:0.264583"
       x="-11.554034"
       y="70.225075"
       id="text1213"><tspan
         sodipodi:role="line"
         id="tspan1211"
         x="-11.554034"
         y="70.225075"
         style="font-size:11.2889px;stroke-width:0.264583">1</tspan></text>
    <circle
       style="display:inline;opacity:0.998;fill:#ffffff;stroke:#000000;stroke-width:0.264583"
       id="path1209-7"
       cx="89.535286"
       cy="17.639788"
       r="6.6149211" />
    <text
       xml:space="preserve"
       style="font-style:normal;font-weight:normal;font-size:10.5833px;line-height:1.25;font-family:sans-serif;display:inline;fill:#000000;fill-opacity:1;stroke:none;stroke-width:0.264583"
       x="85.999336"
       y="21.582018"
       id="text1213-6"><tspan
         sodipodi:role="line"
         id="tspan1211-4"
         x="85.999336"
         y="21.582018"
         style="font-size:11.2889px;stroke-width:0.264583">2</tspan></text>
    <circle
       r="6.6149211"
       cy="55.057522"
       cx="62.2738"
       id="path1209-7-4"
       style="display:inline;opacity:0.998;fill:#ffffff;stroke:#000000;stroke-width:0.264583" />
    <text
       id="text1213-6-4"
       y="58.999752"
       x="58.73785"
       style="font-style:normal;font-weight:normal;font-size:10.5833px;line-height:1.25;font-family:sans-serif;display:inline;fill:#000000;fill-opacity:1;stroke:none;stroke-width:0.264583"
       xml:space="preserve"><tspan
         style="font-size:11.2889px;stroke-width:0.264583"
         y="58.999752"
         x="58.73785"
         id="tspan1211-4-3"
         sodipodi:role="line">3</tspan></text>
    <circle
       style="display:inline;opacity:0.998;fill:#ffffff;stroke:#000000;stroke-width:0.264583"
       id="path1209-7-4-6"
       cx="94.880684"
       cy="60.135647"
       r="6.6149211" />
    <text
       xml:space="preserve"
       style="font-style:normal;font-weight:normal;font-size:10.5833px;line-height:1.25;font-family:sans-serif;display:inline;fill:#000000;fill-opacity:1;stroke:none;stroke-width:0.264583"
       x="91.344734"
       y="64.077873"
       id="text1213-6-4-0"><tspan
         sodipodi:role="line"
         id="tspan1211-4-3-0"
         x="91.344734"
         y="64.077873"
         style="font-size:11.2889px;stroke-width:0.264583">4</tspan></text>
    <circle
       r="6.6149211"
       cy="24.321529"
       cx="116.5295"
       id="path1209-7-4-6-4"
       style="display:inline;opacity:0.998;fill:#ffffff;stroke:#000000;stroke-width:0.264583" />
    <text
       id="text1213-6-4-0-5"
       y="28.26376"
       x="112.99356"
       style="font-style:normal;font-weight:normal;font-size:10.5833px;line-height:1.25;font-family:sans-serif;display:inline;fill:#000000;fill-opacity:1;stroke:none;stroke-width:0.264583"
       xml:space="preserve"><tspan
         style="font-size:11.2889px;stroke-width:0.264583"
         y="28.26376"
         x="112.99356"
         id="tspan1211-4-3-0-3"
         sodipodi:role="line">5</tspan></text>
    <circle
       style="display:inline;opacity:0.998;fill:#ffffff;stroke:#000000;stroke-width:0.264583"
       id="path1209-7-4-6-4-3"
       cx="155.81813"
       cy="24.856068"
       r="6.6149211" />
    <text
       xml:space="preserve"
       style="font-style:normal;font-weight:normal;font-size:10.5833px;line-height:1.25;font-family:sans-serif;display:inline;fill:#000000;fill-opacity:1;stroke:none;stroke-width:0.264583"
       x="152.2822"
       y="28.798298"
       id="text1213-6-4-0-5-4"><tspan
         sodipodi:role="line"
         id="tspan1211-4-3-0-3-9"
         x="152.2822"
         y="28.798298"
         style="font-size:11.2889px;stroke-width:0.264583">6</tspan></text>
    <circle
       style="display:inline;opacity:0.998;fill:#ffffff;stroke:#000000;stroke-width:0.264583"
       id="path1209-7-4-6-4-4"
       cx="162.90056"
       cy="51.507355"
       r="6.6149211" />
    <text
       xml:space="preserve"
       style="font-style:normal;font-weight:normal;font-size:10.5833px;line-height:1.25;font-family:sans-serif;display:inline;fill:#000000;fill-opacity:1;stroke:none;stroke-width:0.264583"
       x="159.36462"
       y="55.449585"
       id="text1213-6-4-0-5-1"><tspan
         sodipodi:role="line"
         id="tspan1211-4-3-0-3-0"
         x="159.36462"
         y="55.449585"
         style="font-size:11.2889px;stroke-width:0.264583">7</tspan></text>
    <path
       sodipodi:type="star"
       style="display:inline;opacity:0.998;fill:#000000;stroke:none;stroke-width:0.264583"
       id="path1203-8"
       sodipodi:sides="3"
       sodipodi:cx="166.7821"
       sodipodi:cy="84.496582"
       sodipodi:r1="3.5920169"
       sodipodi:r2="1.7960085"
       sodipodi:arg1="-3.1415927"
       sodipodi:arg2="-2.0943951"
       inkscape:flatsided="true"
       inkscape:rounded="0"
       inkscape:randomized="0"
       d="m 163.19009,84.496582 5.38802,-3.110778 0,6.221556 z"
       inkscape:transform-center-x="-0.80556201"
       inkscape:transform-center-y="1.3467987"
       transform="matrix(0.7356752,-2.0778536,0.94266024,0.33375392,-43.736269,381.28076)" />
    <circle
       r="6.6149211"
       cy="11.150298"
       cx="215.63542"
       id="path1209-7-4-6-4-3-2"
       style="display:inline;opacity:0.998;fill:#ffffff;stroke:#000000;stroke-width:0.264583" />
    <text
       id="text1213-6-4-0-5-4-8"
       y="15.092527"
       x="212.09949"
       style="font-style:normal;font-weight:normal;font-size:10.5833px;line-height:1.25;font-family:sans-serif;display:inline;fill:#000000;fill-opacity:1;stroke:none;stroke-width:0.264583"
       xml:space="preserve"><tspan
         style="font-size:11.2889px;stroke-width:0.264583"
         y="15.092527"
         x="212.09949"
         id="tspan1211-4-3-0-3-9-0"
         sodipodi:role="line">8</tspan></text>
    <circle
       style="display:inline;opacity:0.998;fill:#ffffff;stroke:#000000;stroke-width:0.264583"
       id="path1209-7-4-6-4-3-2-3"
       cx="277.24554"
       cy="85.271431"
       r="6.6149211" />
    <text
       xml:space="preserve"
       style="font-style:normal;font-weight:normal;font-size:10.5833px;line-height:1.25;font-family:sans-serif;display:inline;fill:#000000;fill-opacity:1;stroke:none;stroke-width:0.264583"
       x="273.70959"
       y="89.213661"
       id="text1213-6-4-0-5-4-8-7"><tspan
         sodipodi:role="line"
         id="tspan1211-4-3-0-3-9-0-1"
         x="273.70959"
         y="89.213661"
         style="font-size:11.2889px;stroke-width:0.264583">9</tspan></text>
  </g>
  <g
     sodipodi:insensitive="true"
     inkscape:label="Corner Names"
     id="layer6"
     inkscape:groupmode="layer">
    <text
       style="font-style:normal;font-weight:normal;font-size:4.93889px;line-height:1.25;font-family:sans-serif;white-space:pre;shape-inside:url(#rect1477);fill:#000000;fill-opacity:1;stroke:none;"
       id="text1475"
       xml:space="preserve" />
    <text
       transform="translate(-4.0632441,-4.5357143)"
       style="font-style:normal;font-weight:normal;font-size:4.93889px;line-height:1.25;font-family:sans-serif;white-space:pre;shape-inside:url(#rect1483);fill:#000000;fill-opacity:1;stroke:none;"
       id="text1481"
       xml:space="preserve"><tspan
         x="8.2207031"
         y="87.09379"><tspan
           style="font-size:4.93889px">Daichi</tspan></tspan></text>
    <text
       transform="translate(15.119048,12.662202)"
       style="font-style:normal;font-weight:normal;font-size:4.93889px;line-height:1.25;font-family:sans-serif;white-space:pre;shape-inside:url(#rect1489);fill:#000000;fill-opacity:1;stroke:none;"
       id="text1487"
       xml:space="preserve"><tspan
         x="133.80273"
         y="13.955118"><tspan
           style="font-size:4.93889px">100R</tspan></tspan></text>
    <text
       transform="translate(-41.961316,-21.648832)"
       style="font-style:normal;font-weight:normal;font-size:10.5833px;line-height:1.25;font-family:sans-serif;white-space:pre;shape-inside:url(#rect1495);fill:#000000;fill-opacity:1;stroke:none;"
       id="text1493"
       xml:space="preserve"><tspan
         x="217.82422"
         y="69.790231"><tspan
           style="font-size:4.93889px">Hairpin</tspan></tspan></text>
    <text
       transform="translate(18.970764,-51.315749)"
       style="font-style:normal;font-weight:normal;font-size:4.93889px;line-height:1.25;font-family:sans-serif;white-space:pre;shape-inside:url(#rect1501);fill:#000000;fill-opacity:1;stroke:none;"
       id="text1499"
       xml:space="preserve"><tspan
         x="209.80664"
         y="59.029337"><tspan
           style="font-size:4.93889px">300R</tspan></tspan></text>
    <text
       transform="translate(20.713388,35.413212)"
       style="font-style:normal;font-weight:normal;font-size:4.93889px;line-height:1.25;font-family:sans-serif;white-space:pre;shape-inside:url(#rect1507);fill:#000000;fill-opacity:1;stroke:none;"
       id="text1505"
       xml:space="preserve"><tspan
         x="255.37695"
         y="67.447305"><tspan
           style="font-size:4.93889px">Last Corner</tspan></tspan></text>
  </g>
</svg>
